<?xml version="1.0" encoding="UTF-8"?>
<svg xmlns="http://www.w3.org/2000/svg" viewBox="0 0 385.06 209.96">
  <defs>
    <style>
      .cls-1 {
        fill: #00ab84;
      }

      .cls-1, .cls-2, .cls-3, .cls-4, .cls-5 {
        stroke-width: 0px;
      }

      .cls-2 {
        fill: #00b5e2;
      }

      .cls-3 {
        fill: #004976;
      }

      .cls-4 {
        fill: #0077c8;
      }

      .cls-5 {
        fill: #056fb7;
      }
    </style>
  </defs>
  <g id="Logo">
    <g>
      <g>
        <path class="cls-1" d="m226.52,74.23c-.18-.04-.35-.07-.51-.11-.06-.02-.13-.03-.19-.05-.25-.06-.48-.13-.66-.19.08.15.15.3.23.44.21.42.45.89.62,1.26.78,1.62,1.25,3.23,1.67,4.79,1.26,5.1,1.8,12.12,1.52,17.19-.27,4.83-.28,5.65-.28,5.71h0s11.65-18.75,11.65-18.75c.65-1.03,4.31-6.2,5.71-11.44.19-.7.28-1.42.31-1.7,0-.01,0-.03,0-.04,0-.03,0-.05,0-.08-4.65,4.34-15.5,3.91-20.09,2.96Z"/>
        <path class="cls-2" d="m233.18,46.32c-1.23-2.95-2.48-7.01,1.02-12.12-7.68,2.94-11.79,10.96-10.5,19.17.75,4.75,3.36,8.49,3.36,8.49-3.44-2.13-7.08-5.82-5.88-11.04-2.02,1.44-3.73,3.79-4.03,6.59,0,1.2.16,2.54.71,3.71,1.07,2.24,2.69,4.97,3.41,6.17,1.4,2.29,3.07,5.05,3.88,6.59.19.06.42.13.66.19.06.02.12.03.19.05.16.04.33.07.51.11,4.6.94,15.45,1.38,20.09-2.96.02-.18.03-.35.03-.53.36-11.04-9.94-15.93-13.47-24.42Z"/>
      </g>
      <path class="cls-4" d="m227.68,80.37c-.42-1.56-.89-3.17-1.67-4.79-.18-.37-.41-.84-.62-1.26-.08-.15-.15-.3-.23-.44-9.89-3.95-8.17-11.3-8.04-11.75-5.41,2.93-6.54,7.57-4.98,12.68.64,2.1,2.54,5.88,4,8,1.46,2.12,12.78,20.47,12.78,20.47,0,0,0,0,0,0,0-.07.01-.88.28-5.71.28-5.07-.26-12.09-1.52-17.19Zm1.24,21.26h0s0,0,0,0h0Z"/>
    </g>
    <polygon class="cls-5" points="228.92 101.63 228.92 101.63 228.92 101.62 228.92 101.63"/>
    <polygon class="cls-3" points="216.96 89.82 228.93 109.09 240.91 89.82 216.96 89.82"/>
    <g>
      <path class="cls-3" d="m47.54,99.25h13.68l31.6,41.52v-41.52h14.64v67.43h-12.62l-32.66-42.87v42.87h-14.64v-67.43Z"/>
      <path class="cls-3" d="m124.49,99.25h31.31c7.71,0,13.77,2.12,17.63,5.97,3.08,3.08,4.62,6.84,4.62,11.46v.19c0,7.61-4.05,11.85-8.86,14.55,7.8,2.99,12.62,7.51,12.62,16.57v.19c0,12.33-10.02,18.5-25.24,18.5h-32.08v-67.43Zm28.13,27.26c6.55,0,10.69-2.12,10.69-7.13v-.19c0-4.43-3.47-6.94-9.73-6.94h-14.64v14.26h13.68Zm3.95,27.17c6.55,0,10.5-2.31,10.5-7.32v-.19c0-4.53-3.37-7.32-10.98-7.32h-17.15v14.84h17.63Z"/>
      <path class="cls-3" d="m195.14,99.25h15.99l17.73,28.51.55-.89,17.17-27.62h15.99v67.43h-14.74v-44.02l-18.98,28.8h-.38l-18.78-28.52v43.74h-14.55v-67.43Z"/>
      <path class="cls-3" d="m279.66,99.25h50.86v13.2h-36.12v13.68h31.79v13.2h-31.79v14.16h36.61v13.2h-51.34v-67.43Z"/>
    </g>
  </g>
  <g id="_" data-name="®">
    <path class="cls-3" d="m335.04,104.18v-.03c0-2.67,2.17-4.91,4.92-4.91s4.9,2.21,4.9,4.88v.03c0,2.67-2.17,4.91-4.92,4.91s-4.9-2.21-4.9-4.88Zm9.25-.03v-.03c0-2.4-1.86-4.34-4.33-4.34s-4.35,1.97-4.35,4.37v.03c0,2.4,1.86,4.34,4.33,4.34s4.35-1.97,4.35-4.37Zm-6.36-2.75h2.32c.71,0,1.25.2,1.61.57.29.28.43.68.43,1.14v.03c0,.84-.46,1.37-1.13,1.61l1.27,1.87h-1.34l-1.11-1.68h-.91v1.68h-1.15v-5.22Zm2.31,2.55c.58,0,.89-.31.89-.75v-.03c0-.5-.35-.76-.92-.76h-1.13v1.53h1.15Z"/>
  </g>
</svg>